<svg id="Layer_1" data-name="Layer 1" xmlns="http://www.w3.org/2000/svg" viewBox="0 0 153.647 141.614">
  <defs>
    <style>
      .cls-1 {
        fill: #fd9600;
      }
    </style>
  </defs>
  <title>icon_level up</title>
  <g>
    <path class="cls-1" d="M171.315,94.492H154.79A5.507,5.507,0,0,0,149.281,100v66.1a5.507,5.507,0,0,0,5.508,5.508h16.525a5.507,5.507,0,0,0,5.508-5.508V100A5.507,5.507,0,0,0,171.315,94.492Zm-5.508,66.1H160.3V105.509h5.508Z" transform="translate(-23.177 -29.995)"/>
    <path class="cls-1" d="M87.245,127.542H70.72a5.507,5.507,0,0,0-5.508,5.508V166.1a5.507,5.507,0,0,0,5.508,5.508H87.245a5.507,5.507,0,0,0,5.508-5.508v-33.05A5.507,5.507,0,0,0,87.245,127.542Zm-5.508,33.05H76.228V138.559h5.508Z" transform="translate(-23.177 -29.995)"/>
    <path class="cls-1" d="M129.28,111.955H112.755c-3.042,0-5.508,3.335-5.508,7.457v44.741c0,4.122,2.467,7.457,5.508,7.457H129.28c3.042,0,5.508-3.335,5.508-7.457V119.411C134.788,115.29,132.322,111.955,129.28,111.955Zm-5.508,48.636h-5.508V122.973h5.508Z" transform="translate(-23.177 -29.995)"/>
    <path class="cls-1" d="M45.21,138.559H28.685a5.507,5.507,0,0,0-5.508,5.508V166.1a5.507,5.507,0,0,0,5.508,5.508H45.21a5.507,5.507,0,0,0,5.508-5.508V144.068A5.507,5.507,0,0,0,45.21,138.559ZM39.7,160.593H34.193V149.576H39.7Z" transform="translate(-23.177 -29.995)"/>
    <path class="cls-1" d="M172.092,30.577a5.5,5.5,0,0,0-5.77.522L146.616,45.881a5.508,5.508,0,0,0,6.611,8.811l.7-.528C131.367,96.046,51.02,115.591,29.682,115.591a5.508,5.508,0,0,0,0,11.017c26.131,0,109.367-21.215,134.438-68.094v1.622a5.508,5.508,0,1,0,11.017,0V35.5A5.51,5.51,0,0,0,172.092,30.577Z" transform="translate(-23.177 -29.995)"/>
  </g>
</svg>
