<svg id="Layer_1" data-name="Layer 1" xmlns="http://www.w3.org/2000/svg" viewBox="0 0 179.665 136.505">
  <defs>
    <style>
      .cls-1 {
        fill: #fd9600;
      }
    </style>
  </defs>
  <title>Icon_PC</title>
  <g>
    <path class="cls-1" d="M168.167,138.586H31.834a7.343,7.343,0,0,1-7.334-7.335v-78a7.343,7.343,0,0,1,7.334-7.334H168.167A7.343,7.343,0,0,1,175.5,53.25v78A7.344,7.344,0,0,1,168.167,138.586Zm-136.333-87a1.667,1.667,0,0,0-1.666,1.666v78a1.667,1.667,0,0,0,1.666,1.665H168.167a1.667,1.667,0,0,0,1.665-1.665v-78a1.667,1.667,0,0,0-1.665-1.666Z" transform="translate(-10.168 -31.747)"/>
    <path class="cls-1" d="M172.83,152.753H27.171a17.022,17.022,0,0,1-17-17v-87a17.022,17.022,0,0,1,17-17H172.83a17.022,17.022,0,0,1,17,17v87A17.021,17.021,0,0,1,172.83,152.753ZM27.171,43.086a5.671,5.671,0,0,0-5.664,5.664v87a5.671,5.671,0,0,0,5.664,5.665H172.83a5.671,5.671,0,0,0,5.664-5.665v-87a5.671,5.671,0,0,0-5.664-5.664Z" transform="translate(-10.168 -31.747)"/>
    <path class="cls-1" d="M180.333,168.253H18a5.669,5.669,0,1,1,0-11.338H180.333a5.669,5.669,0,1,1,0,11.338Z" transform="translate(-10.168 -31.747)"/>
  </g>
</svg>
