<svg id="Layer_1" data-name="Layer 1" xmlns="http://www.w3.org/2000/svg" viewBox="0 0 176.269 165.73">
  <defs>
    <style>
      .cls-1 {
        fill: #fd9600;
      }
    </style>
  </defs>
  <title>Icon_people</title>
  <g>
    <path class="cls-1" d="M55.94,127.695c-12.014,0-24.029-1.8-30.248-5.39a8.232,8.232,0,0,1-2.824-2.3c1.888-24.1,6.695-28.177,16.274-36.292L41.6,81.624A33.639,33.639,0,0,0,55.836,84.8a32.009,32.009,0,0,0,5.609-.528V72.958a21.185,21.185,0,0,1-5.609.819A22.812,22.812,0,1,1,78.649,50.965a19.336,19.336,0,0,1-.676,5.146H89.2a31.314,31.314,0,0,0,.465-5.146A33.83,33.83,0,1,0,32.205,75.151l-.187.159C20.594,84.99,14.026,91.8,11.865,119.577c0,3.411,1.442,8.307,8.317,12.272,7.818,4.515,22.242,6.783,35.754,6.9Z" transform="translate(-11.865 -17.135)"/>
    <path class="cls-1" d="M55.937,39.222A11.657,11.657,0,0,1,67.581,50.864a2.754,2.754,0,1,0,5.509,0A17.172,17.172,0,0,0,55.937,33.713a2.754,2.754,0,0,0,0,5.509Z" transform="translate(-11.865 -17.135)"/>
    <path class="cls-1" d="M121.751,56.108a22.8,22.8,0,1,1,16.807,17.019l.008,11.216a33.271,33.271,0,0,0,19.776-2.781l2.534,2.154c9.576,8.115,14.385,12.191,16.257,35.861,0,.554-.866,1.609-2.8,2.728-6.22,3.591-18.237,5.385-30.253,5.384l0,11.056c13.5-.121,27.959-2.389,35.76-6.9,6.87-3.97,8.311-8.866,8.3-12.7C185.988,91.8,179.425,84.99,168,75.31l-.291-.247a33.825,33.825,0,1,0-57.558-24.1,33.286,33.286,0,0,0,.41,5.146Z" transform="translate(-11.865 -17.135)"/>
    <path class="cls-1" d="M161.23,50.864a17.169,17.169,0,0,0-17.151-17.151,2.754,2.754,0,1,0,0,5.509,11.657,11.657,0,0,1,11.642,11.642,2.754,2.754,0,1,0,5.509,0Z" transform="translate(-11.865 -17.135)"/>
    <path class="cls-1" d="M157.244,96.925c8.145,4.073,8.145,17.342,8.145,21.7a2.754,2.754,0,1,0,5.509,0c0-5.2,0-21.032-11.19-26.627a2.755,2.755,0,1,0-2.464,4.928Z" transform="translate(-11.865 -17.135)"/>
    <path class="cls-1" d="M100.008,83.293A11.657,11.657,0,0,1,111.65,94.935a2.754,2.754,0,1,0,5.509,0,17.169,17.169,0,0,0-17.151-17.151,2.754,2.754,0,0,0,0,5.509Z" transform="translate(-11.865 -17.135)"/>
    <path class="cls-1" d="M115.637,136.066a2.755,2.755,0,1,0-2.464,4.928c8.145,4.073,8.145,17.345,8.145,21.7a2.754,2.754,0,1,0,5.509,0C126.826,157.494,126.826,141.667,115.637,136.066Z" transform="translate(-11.865 -17.135)"/>
    <path class="cls-1" d="M123.926,119.378l-.289-.245a33.834,33.834,0,1,0-47.362.088l-.186.158c-11.424,9.684-17.993,16.494-20.153,44.27,0,3.411,1.442,8.307,8.317,12.272,8.022,4.632,21.888,6.945,35.757,6.945s27.741-2.313,35.757-6.945c6.87-3.97,8.311-8.866,8.3-12.7C141.917,135.872,135.354,129.062,123.926,119.378ZM122.72,95.036A22.812,22.812,0,1,1,99.908,72.224,22.838,22.838,0,0,1,122.72,95.036ZM69.763,166.381a8.274,8.274,0,0,1-2.824-2.3c1.888-24.1,6.695-28.174,16.274-36.292l2.462-2.092c.467.217.928.442,1.407.638l7.993,10.991-9.666,22.151,9.981,12.2C85,171.271,75.182,169.508,69.763,166.381Zm60.5,0c-5.455,3.153-15.375,4.92-25.841,5.307l9.988-12.208-9.665-22.151,7.993-10.991c.523-.214,1.027-.461,1.537-.7l2.534,2.154c9.576,8.118,14.385,12.191,16.257,35.861C133.061,164.2,132.2,165.257,130.259,166.376Z" transform="translate(-11.865 -17.135)"/>
  </g>
</svg>
