<svg id="Layer_1" data-name="Layer 1" xmlns="http://www.w3.org/2000/svg" viewBox="0 0 812.23 158.005">
  <defs>
    <style>
      .cls-1 {
        fill: #004c9b;
      }

      .cls-2, .cls-8 {
        fill: #f46e14;
      }

      .cls-3, .cls-7 {
        fill: #97999c;
      }

      .cls-10, .cls-3, .cls-5, .cls-6, .cls-8, .cls-9 {
        fill-rule: evenodd;
      }

      .cls-4 {
        fill: #1a1718;
      }

      .cls-5 {
        fill: #004d9b;
      }

      .cls-6 {
        fill: #fff;
      }

      .cls-9 {
        fill: #f98927;
      }

      .cls-10 {
        fill: none;
      }
    </style>
  </defs>
  <title>Logo ILTC original</title>
  <g>
    <g>
      <g>
        <path class="cls-1" d="M219.788,157.132V133.44h4.179V136h.1q1.749-2.953,4.388-2.952a4.525,4.525,0,0,1,3.776,1.855,8.333,8.333,0,0,1,1.422,5.172v17.057h-4.179V140.179q0-3.423-2.246-3.422a2.862,2.862,0,0,0-2.258,1.292,5.53,5.53,0,0,0-1.007,1.529v17.554Z" transform="translate(-15.063 -13.126)"/>
        <path class="cls-1" d="M247.764,153.162v3.709a9.523,9.523,0,0,1-3.683.914q-4.388,0-4.388-5.3V137.1h-2.717v-.366a87.949,87.949,0,0,0,6.53-9.4h.366v6.112h3.892V137.1h-3.892v13.51a6.1,6.1,0,0,0,.354,2.543,1.325,1.325,0,0,0,1.292.665A5.644,5.644,0,0,0,247.764,153.162Z" transform="translate(-15.063 -13.126)"/>
        <path class="cls-1" d="M262.654,151.568V155.7a6.982,6.982,0,0,1-4.885,2.09,6.225,6.225,0,0,1-5.59-3.239q-1.984-3.238-1.985-9.3,0-5.9,1.738-9.183t4.844-3.277q6.479,0,6.348,13.427h-8.751q0,7.7,4.217,7.706A5.058,5.058,0,0,0,262.654,151.568Zm-8.333-8.49h4.624q0-6.636-2.4-6.635Q254.321,136.444,254.321,143.079Z" transform="translate(-15.063 -13.126)"/>
        <path class="cls-1" d="M267.826,157.132V133.44h4.179v6.4h.1a25.77,25.77,0,0,1,2.075-5.512,2.607,2.607,0,0,1,2.313-1.28,3.626,3.626,0,0,1,2.142.705l-.313,4.284a3.14,3.14,0,0,0-1.829-.6q-1.959,0-3.225,3.526a19.975,19.975,0,0,0-1.268,6.766v9.4Z" transform="translate(-15.063 -13.126)"/>
        <path class="cls-1" d="M281.905,157.132V133.44h4.179V136h.1q1.749-2.953,4.388-2.952a4.525,4.525,0,0,1,3.776,1.855,8.333,8.333,0,0,1,1.422,5.172v17.057H291.6V140.179q0-3.423-2.246-3.422a2.862,2.862,0,0,0-2.258,1.292,5.53,5.53,0,0,0-1.007,1.529v17.554Z" transform="translate(-15.063 -13.126)"/>
        <path class="cls-1" d="M315.446,152.744V155.9q-1.966,1.749-3.251,1.75-2.337,0-3.07-2.978-2.29,3.11-4.531,3.108A4.047,4.047,0,0,1,301.349,156a6.674,6.674,0,0,1-1.394-4.22,6.477,6.477,0,0,1,1.954-4.754,36.4,36.4,0,0,1,7.058-4.911V139.84q0-3.081-2.474-3.082-2.525,0-5.963,3.892v-4.806q3.188-3.056,6.321-3.056a6.29,6.29,0,0,1,4.455,1.724,6.072,6.072,0,0,1,1.84,4.65v13.374q0,1.386.653,1.384Q314.192,153.919,315.446,152.744Zm-6.478-1.646v-6.112q-4.912,2.978-4.911,6.165a3.065,3.065,0,0,0,.572,1.921,1.761,1.761,0,0,0,1.456.743,2.509,2.509,0,0,0,1.985-1.19A4.1,4.1,0,0,0,308.967,151.1Z" transform="translate(-15.063 -13.126)"/>
        <path class="cls-1" d="M327.7,153.162v3.709a9.523,9.523,0,0,1-3.683.914q-4.388,0-4.388-5.3V137.1h-2.717v-.366a87.949,87.949,0,0,0,6.53-9.4h.366v6.112H327.7V137.1H323.8v13.51a6.1,6.1,0,0,0,.354,2.543,1.325,1.325,0,0,0,1.292.665A5.644,5.644,0,0,0,327.7,153.162Z" transform="translate(-15.063 -13.126)"/>
        <path class="cls-1" d="M333.052,125.734a2.408,2.408,0,1,1,1.7-.705A2.313,2.313,0,0,1,333.052,125.734Zm-2.09,31.4V133.44h4.179v23.692Z" transform="translate(-15.063 -13.126)"/>
        <path class="cls-1" d="M346.948,157.785a6.079,6.079,0,0,1-5.419-3.332q-2-3.327-2-9.154t2-9.169a6.075,6.075,0,0,1,10.852,0q2.013,3.345,2.011,9.169t-2.011,9.154A6.113,6.113,0,0,1,346.948,157.785Zm-.038-21.028q-3.1,0-3.1,8.542,0,8.517,3.2,8.516,3.1,0,3.1-8.516Q350.109,136.757,346.91,136.757Z" transform="translate(-15.063 -13.126)"/>
        <path class="cls-1" d="M358.782,157.132V133.44h4.179V136h.1q1.749-2.953,4.388-2.952a4.525,4.525,0,0,1,3.776,1.855,8.333,8.333,0,0,1,1.422,5.172v17.057h-4.179V140.179q0-3.423-2.246-3.422a2.862,2.862,0,0,0-2.258,1.292,5.53,5.53,0,0,0-1.007,1.529v17.554Z" transform="translate(-15.063 -13.126)"/>
        <path class="cls-1" d="M392.322,152.744V155.9q-1.966,1.749-3.251,1.75-2.337,0-3.07-2.978-2.29,3.11-4.531,3.108A4.047,4.047,0,0,1,378.226,156a6.674,6.674,0,0,1-1.394-4.22,6.477,6.477,0,0,1,1.954-4.754,36.4,36.4,0,0,1,7.058-4.911V139.84q0-3.081-2.474-3.082-2.525,0-5.963,3.892v-4.806q3.188-3.056,6.321-3.056a6.29,6.29,0,0,1,4.455,1.724,6.072,6.072,0,0,1,1.84,4.65v13.374q0,1.386.653,1.384Q391.068,153.919,392.322,152.744Zm-6.478-1.646v-6.112q-4.912,2.978-4.911,6.165a3.065,3.065,0,0,0,.572,1.921,1.761,1.761,0,0,0,1.456.743,2.509,2.509,0,0,0,1.985-1.19A4.1,4.1,0,0,0,385.844,151.1Z" transform="translate(-15.063 -13.126)"/>
        <path class="cls-1" d="M395.274,157.132V121.4h4.179v35.734Z" transform="translate(-15.063 -13.126)"/>
      </g>
      <g>
        <path class="cls-1" d="M456.926,152.931v3.161q-1.966,1.749-3.251,1.75-2.337,0-3.07-2.978-2.29,3.11-4.531,3.108a4.047,4.047,0,0,1-3.244-1.788,6.674,6.674,0,0,1-1.394-4.22,6.477,6.477,0,0,1,1.954-4.754,36.4,36.4,0,0,1,7.058-4.911v-2.273q0-3.081-2.474-3.082-2.525,0-5.963,3.892V136.03q3.188-3.056,6.321-3.056a6.29,6.29,0,0,1,4.455,1.724,6.072,6.072,0,0,1,1.84,4.65v13.374q0,1.386.653,1.384Q455.672,154.107,456.926,152.931Zm-6.478-1.646v-6.112q-4.912,2.978-4.911,6.165a3.065,3.065,0,0,0,.572,1.921,1.761,1.761,0,0,0,1.456.743,2.509,2.509,0,0,0,1.985-1.19A4.1,4.1,0,0,0,450.447,151.286Z" transform="translate(-15.063 -13.126)"/>
        <path class="cls-1" d="M460.139,157.32V133.627h4.179v2.56h.1q1.749-2.953,4.388-2.952a4.525,4.525,0,0,1,3.776,1.855,8.333,8.333,0,0,1,1.422,5.172V157.32H469.83V140.367q0-3.423-2.246-3.422a2.862,2.862,0,0,0-2.258,1.292,5.53,5.53,0,0,0-1.007,1.529V157.32Z" transform="translate(-15.063 -13.126)"/>
        <path class="cls-1" d="M493.679,137.284h-3.135a10.933,10.933,0,0,1,1.332,5.747q0,7.68-6.635,8.751a5.317,5.317,0,0,0-1.7.508,1.345,1.345,0,0,0-.5,1.242,1.677,1.677,0,0,0,.5,1.213q.5.513,3.878,1.19a6.8,6.8,0,0,1,6.205,7.157,6.776,6.776,0,0,1-2.287,5.288,8.551,8.551,0,0,1-5.942,2.052,8.412,8.412,0,0,1-5.616-1.9,5.889,5.889,0,0,1-2.246-4.688q0-4.075,4.075-5.825-2.689-1.2-2.691-3.474,0-2.508,3.317-3.814-3.63-2.508-3.631-8.124a10.5,10.5,0,0,1,1.867-6.542,6.109,6.109,0,0,1,5.134-2.444h8.072Zm-8.385,22.282a4,4,0,0,0-2.859,1.045,3.526,3.526,0,0,0-1.111,2.691,3.281,3.281,0,0,0,1.149,2.612,4.47,4.47,0,0,0,3.03.993,4.65,4.65,0,0,0,3.1-1.045,3.227,3.227,0,0,0,1.24-2.56,3.313,3.313,0,0,0-1.332-2.638A4.891,4.891,0,0,0,485.294,159.566Zm.014-22.8a2.39,2.39,0,0,0-2.113,1.558,9.466,9.466,0,0,0-.8,4.282,10.082,10.082,0,0,0,.774,4.372,2.365,2.365,0,0,0,2.14,1.57,2.267,2.267,0,0,0,2.033-1.506,9.535,9.535,0,0,0,.748-4.175,10.749,10.749,0,0,0-.762-4.464Q486.568,136.763,485.308,136.762Z" transform="translate(-15.063 -13.126)"/>
        <path class="cls-1" d="M510.423,133.627V157.32h-4.179v-2.56h-.1q-1.667,2.924-4.22,2.926a4.762,4.762,0,0,1-3.857-1.8,7.623,7.623,0,0,1-1.484-4.989V133.627h4.179V150.58q0,3.37,2.237,3.37a2.876,2.876,0,0,0,2.273-1.19,3.739,3.739,0,0,0,.976-1.605V133.627Z" transform="translate(-15.063 -13.126)"/>
        <path class="cls-1" d="M530.432,152.931v3.161q-1.966,1.749-3.251,1.75-2.337,0-3.07-2.978-2.29,3.11-4.531,3.108a4.047,4.047,0,0,1-3.244-1.788,6.674,6.674,0,0,1-1.394-4.22,6.477,6.477,0,0,1,1.954-4.754,36.4,36.4,0,0,1,7.058-4.911v-2.273q0-3.081-2.474-3.082-2.525,0-5.963,3.892V136.03q3.188-3.056,6.321-3.056a6.29,6.29,0,0,1,4.455,1.724,6.072,6.072,0,0,1,1.84,4.65v13.374q0,1.386.653,1.384Q529.178,154.107,530.432,152.931Zm-6.478-1.646v-6.112q-4.912,2.978-4.911,6.165a3.065,3.065,0,0,0,.572,1.921,1.761,1.761,0,0,0,1.456.743,2.509,2.509,0,0,0,1.985-1.19A4.1,4.1,0,0,0,523.954,151.286Z" transform="translate(-15.063 -13.126)"/>
        <path class="cls-1" d="M548.242,137.284h-3.135a10.887,10.887,0,0,1,1.339,5.747q0,7.68-6.637,8.751a5.317,5.317,0,0,0-1.7.508,1.345,1.345,0,0,0-.5,1.242,1.677,1.677,0,0,0,.5,1.213q.5.513,3.88,1.19a6.807,6.807,0,0,1,6.2,7.157,6.762,6.762,0,0,1-2.289,5.288,8.549,8.549,0,0,1-5.939,2.052,8.412,8.412,0,0,1-5.616-1.9,5.889,5.889,0,0,1-2.246-4.688q0-4.075,4.075-5.825-2.689-1.2-2.691-3.474,0-2.508,3.317-3.814-3.63-2.508-3.631-8.124a10.5,10.5,0,0,1,1.867-6.542,6.109,6.109,0,0,1,5.134-2.444h8.067Zm-8.38,22.282A4,4,0,0,0,537,160.611a3.526,3.526,0,0,0-1.111,2.691,3.281,3.281,0,0,0,1.149,2.612,4.47,4.47,0,0,0,3.03.993,4.665,4.665,0,0,0,3.1-1.045,3.222,3.222,0,0,0,1.235-2.56,3.324,3.324,0,0,0-1.33-2.638A4.9,4.9,0,0,0,539.862,159.566Zm.014-22.8a2.39,2.39,0,0,0-2.113,1.558,9.466,9.466,0,0,0-.8,4.282,10.082,10.082,0,0,0,.774,4.372,2.365,2.365,0,0,0,2.14,1.57,2.267,2.267,0,0,0,2.033-1.506,9.5,9.5,0,0,0,.748-4.175,10.787,10.787,0,0,0-.762-4.464Q541.132,136.763,539.876,136.762Z" transform="translate(-15.063 -13.126)"/>
        <path class="cls-1" d="M563.136,151.756v4.127a6.98,6.98,0,0,1-4.882,2.09,6.24,6.24,0,0,1-5.595-3.239q-1.981-3.238-1.985-9.3,0-5.9,1.738-9.183t4.844-3.277q6.483,0,6.355,13.427h-8.758q0,7.7,4.217,7.706A5.059,5.059,0,0,0,563.136,151.756Zm-8.33-8.49h4.626c0-4.424-.807-6.635-2.4-6.635Q554.806,136.631,554.806,143.266Z" transform="translate(-15.063 -13.126)"/>
      </g>
      <g>
        <path class="cls-1" d="M606.375,157.78V133.658h4.255v6.516h.109a25.976,25.976,0,0,1,2.113-5.614,2.654,2.654,0,0,1,2.356-1.3,3.686,3.686,0,0,1,2.18.717l-.318,4.362a3.207,3.207,0,0,0-1.862-.613q-1.995,0-3.287,3.591a20.365,20.365,0,0,0-1.292,6.889v9.575Z" transform="translate(-15.063 -13.126)"/>
        <path class="cls-1" d="M634.482,153.311v3.22q-2,1.781-3.31,1.781-2.372,0-3.125-3.032-2.33,3.167-4.612,3.165a4.125,4.125,0,0,1-3.306-1.821,6.793,6.793,0,0,1-1.415-4.3,6.6,6.6,0,0,1,1.985-4.84,37.2,37.2,0,0,1,7.191-5v-2.313q0-3.138-2.522-3.139-2.572,0-6.07,3.963V136.1q3.241-3.113,6.435-3.111a6.4,6.4,0,0,1,4.536,1.755,6.176,6.176,0,0,1,1.876,4.733V153.1c0,.94.218,1.408.665,1.408Q633.209,154.508,634.482,153.311Zm-6.592-1.674v-6.224q-5,3.031-5,6.276a3.134,3.134,0,0,0,.579,1.954,1.8,1.8,0,0,0,1.482.76,2.558,2.558,0,0,0,2.023-1.211A4.235,4.235,0,0,0,627.89,151.637Z" transform="translate(-15.063 -13.126)"/>
        <path class="cls-1" d="M639.664,125.812a2.455,2.455,0,0,1-1.729-4.189,2.471,2.471,0,0,1,3.458,0,2.454,2.454,0,0,1-1.729,4.189Zm-2.128,31.968V133.658h4.255V157.78Z" transform="translate(-15.063 -13.126)"/>
        <path class="cls-1" d="M646.84,157.78V133.658H651.1v2.605h.1q1.781-3,4.469-3a4.6,4.6,0,0,1,3.842,1.888,8.451,8.451,0,0,1,1.453,5.265V157.78h-4.255V140.519q0-3.484-2.289-3.484a2.908,2.908,0,0,0-2.3,1.316,5.6,5.6,0,0,0-1.026,1.558V157.78Z" transform="translate(-15.063 -13.126)"/>
        <path class="cls-1" d="M668.027,125.812a2.455,2.455,0,0,1-1.729-4.189,2.471,2.471,0,0,1,3.458,0,2.454,2.454,0,0,1-1.729,4.189ZM665.9,157.78V133.658h4.255V157.78Z" transform="translate(-15.063 -13.126)"/>
        <path class="cls-1" d="M675.2,157.78V133.658h4.255v2.605h.1q1.781-3,4.469-3a4.6,4.6,0,0,1,3.842,1.888,8.451,8.451,0,0,1,1.453,5.265V157.78h-4.255V140.519q0-3.484-2.289-3.484a2.908,2.908,0,0,0-2.3,1.316,5.6,5.6,0,0,0-1.026,1.558V157.78Z" transform="translate(-15.063 -13.126)"/>
        <path class="cls-1" d="M709.081,137.382h-3.192a11.1,11.1,0,0,1,1.358,5.851q0,7.819-6.754,8.91a5.272,5.272,0,0,0-1.729.518,1.364,1.364,0,0,0-.508,1.263,1.713,1.713,0,0,0,.508,1.237c.332.344,1.653.748,3.947,1.209a6.917,6.917,0,0,1,6.317,7.288,6.9,6.9,0,0,1-2.327,5.386,8.719,8.719,0,0,1-6.051,2.087,8.563,8.563,0,0,1-5.718-1.928,6,6,0,0,1-2.284-4.773q0-4.15,4.146-5.932-2.736-1.222-2.74-3.536,0-2.554,3.382-3.883-3.7-2.554-3.7-8.273a10.69,10.69,0,0,1,1.9-6.661,6.207,6.207,0,0,1,5.224-2.486h8.216Zm-8.535,22.686a4.068,4.068,0,0,0-2.911,1.064,3.589,3.589,0,0,0-1.13,2.74,3.346,3.346,0,0,0,1.168,2.66,4.563,4.563,0,0,0,3.087,1.009,4.711,4.711,0,0,0,3.149-1.064,3.284,3.284,0,0,0,1.263-2.605,3.372,3.372,0,0,0-1.354-2.686A4.982,4.982,0,0,0,700.546,160.067Zm.014-23.217a2.426,2.426,0,0,0-2.151,1.586,9.6,9.6,0,0,0-.817,4.358,10.217,10.217,0,0,0,.788,4.45,2.417,2.417,0,0,0,2.18,1.6,2.313,2.313,0,0,0,2.071-1.534,9.7,9.7,0,0,0,.76-4.251,10.949,10.949,0,0,0-.774-4.545Q701.84,136.851,700.56,136.85Z" transform="translate(-15.063 -13.126)"/>
      </g>
      <g>
        <path class="cls-1" d="M763.708,151.967v4.277a7.238,7.238,0,0,1-5.063,2.166,6.453,6.453,0,0,1-5.794-3.358q-2.059-3.355-2.056-9.637,0-6.116,1.8-9.515t5.02-3.4q6.718,0,6.578,13.916h-9.067q0,7.986,4.369,7.986A5.246,5.246,0,0,0,763.708,151.967Zm-8.634-8.8h4.787q0-6.878-2.489-6.877Q755.072,136.292,755.074,143.169Z" transform="translate(-15.063 -13.126)"/>
        <path class="cls-1" d="M768.3,157.733V133.178h4.331v2.653h.109c1.206-2.037,2.726-3.059,4.545-3.059A4.69,4.69,0,0,1,781.2,134.7a8.622,8.622,0,0,1,1.477,5.36v17.677h-4.331v-17.57q0-3.544-2.332-3.545a2.972,2.972,0,0,0-2.341,1.339,5.766,5.766,0,0,0-1.04,1.584v18.193Z" transform="translate(-15.063 -13.126)"/>
        <path class="cls-1" d="M796.622,153.618v3.845a9.9,9.9,0,0,1-3.819.948q-4.545,0-4.545-5.488V136.969h-2.816v-.38a91.65,91.65,0,0,0,6.768-9.743h.38v6.333h4.032v3.79H792.59v14a6.378,6.378,0,0,0,.366,2.636,1.377,1.377,0,0,0,1.339.689A5.829,5.829,0,0,0,796.622,153.618Z" transform="translate(-15.063 -13.126)"/>
        <path class="cls-1" d="M811.392,151.967v4.277a7.238,7.238,0,0,1-5.063,2.166,6.453,6.453,0,0,1-5.794-3.358q-2.059-3.355-2.056-9.637,0-6.116,1.8-9.515t5.02-3.4q6.718,0,6.578,13.916H802.81q0,7.986,4.369,7.986A5.246,5.246,0,0,0,811.392,151.967Zm-8.634-8.8h4.787q0-6.878-2.489-6.877Q802.756,136.292,802.758,143.169Z" transform="translate(-15.063 -13.126)"/>
        <path class="cls-1" d="M816.085,157.733V133.178h4.331v6.633h.109a26.372,26.372,0,0,1,2.151-5.711,2.694,2.694,0,0,1,2.394-1.327,3.778,3.778,0,0,1,2.223.731l-.328,4.441a3.248,3.248,0,0,0-1.9-.625q-2.03,0-3.344,3.655a20.755,20.755,0,0,0-1.311,7.012v9.746Z" transform="translate(-15.063 -13.126)"/>
      </g>
    </g>
    <g>
      <path class="cls-2" d="M423.559,157.78V114.25h5.6v38.311h10.755v5.22Z" transform="translate(-15.063 -13.126)"/>
      <path class="cls-2" d="M207.891,157.733V114.2h5.6v43.531Z" transform="translate(-15.063 -13.126)"/>
      <path class="cls-2" d="M590.986,157.755v-38.58h-6.729v-5.256h19.094v5.256h-6.729v38.58Z" transform="translate(-15.063 -13.126)"/>
      <path class="cls-2" d="M747.558,149.745v5.869a10.617,10.617,0,0,1-6.629,2.443q-5.586,0-8.633-5.711t-3.045-16.306q0-10.6,3.061-16.562t8.744-5.964a10.83,10.83,0,0,1,5.995,2.251v5.647a8.163,8.163,0,0,0-5.583-2.7q-3.365,0-4.87,3.944t-1.508,13.125q0,9.092,1.525,13.08t5.043,3.991Q744.071,152.856,747.558,149.745Z" transform="translate(-15.063 -13.126)"/>
    </g>
    <g>
      <path class="cls-3" d="M187.356,114.7l-.529.529.353-.353h0l.176-.176Zm-.882.529Zm-.529.353h0Zm.529,0h0l-.176-.353h.176l-.176.353Zm0,0h0Zm.176.705h0v-.176h-.176l-.882.705h-.176l-.353.176h0l-.529.529v.176h.176l1.587-1.235h0l1.411-.882.529-.353-.705.353h0l-.353.353-.529.353Zm-5.643,2.645h.176l-.705.353h.176l.353-.353Zm-11.11,7.407h-.705l.176-.176.353-.353.882-.705,2.645-1.94,3.527-2.469,3.88-2.292,3.527-1.94,2.645-1.411.705-.353h.529v.529l-.705.705-.882.882-1.235,1.058-4.938,3.351h0l-1.587,1.058-2.469,1.411-2.822,1.235-3.527,1.411Zm22.4-37.739h0v.176l.176.176,1.058-.529,3.527-1.763,3.88-1.94,1.587-.705h.882l.176.176v.176l-.353.353-1.411,1.235-1.587,1.235-.529.705-.353.529h0l.882-.176,1.058-.529,2.645-1.234,3.351-2.116,3.7-2.822,3.88-3.174,1.94-1.94,1.764-1.764,1.763-2.116,1.764-1.94,1.587-2.116,1.411-2.292h0l.176-.353-.176-.176-.353.176-.705.353-1.764,1.058-2.116,1.587-4.409,3.174-1.94,1.587L228.269,58.1l-2.116-.705h0l5.467-7.759,4.056-6.525,3.174-5.29,2.116-4.409,1.234-3.35.529-1.235.176-1.235V25.823l-.176-.529-.353-.353h0l-1.763,3.527-1.94,3.7-2.116,3.7L234.265,39.4l-2.293,3.527L229.5,46.28l-4.761,6.349-4.232,5.291-3.7,4.232-3.351,3.7,4.409-3.527h0L215.4,65.5l-2.822,3.527-3.527,4.056-3.88,4.409L200.759,81.9l-2.116,1.94-2.116,1.94-2.293,1.587-1.94,1.235Zm54.316-75.477h0L245.9,14.36l-1.411,2.822-.705,1.587-.529,1.587-.353,1.234v.529l.176.529h0L245.2,20l1.411-1.94,1.587-2.116h0v-.882l-.176-.529-.353-.529-.176-.353-.705-.353-.176-.176Z" transform="translate(-15.063 -13.126)"/>
      <path class="cls-4" d="M65.323,167.709H65.3a.63.63,0,0,1-.606-.63v-.353a.63.63,0,0,1,.043-.228l.135-1.749.176-4.046.529-12.513.352-16.212V113.827l-.352-17.62-.352-7.928-.352-7.215L64.344,75.1l-.7-4.375L63.3,69l-.329-1.153-.233-.465-.032-.016h-.2a.63.63,0,0,1-.282-1.194L62.572,66a.631.631,0,0,1,.129-.048l.705-.176a.633.633,0,0,1,.116-.018l3-.176h.059l5.114.176,6.344.176h.01l16.224.705,18.871.882h.005l35.093,1.94h.013l16.4,1.235a.63.63,0,0,1,.583.629v3.361l-.176,10.4-.176,32.268-.176,31.214v.009l-.176,9.17q0,.023,0,.045l-.176,1.94a.63.63,0,0,1-.628.573h-.176a.628.628,0,0,1-.3-.077l-.521.209a.634.634,0,0,1-.061.021l-1.234.353a.633.633,0,0,1-.11.021l-1.764.176-4.933.529-.032,0-6.349.353-16.048.882h-.016l-18.158.529-18.334.881-8.636.353-7.391.528-5.985.528-4.889.524-1.334.333-1.309.491-.185.123-.005.066A.63.63,0,0,1,65.323,167.709ZM63.951,66.992l.172.344a.631.631,0,0,1,.042.109l.353,1.234q.007.024.012.049l.353,1.764,0,.024.705,4.409q0,.022.005.044l.529,6,0,.025.353,7.23.353,7.939v.015l.353,17.635V132l-.353,16.224v.013L66.3,160.756l-.176,4.057v.021l-.06.785.974-.365a.641.641,0,0,1,.068-.021l1.411-.353a.632.632,0,0,1,.086-.015l4.938-.529h.012l6-.529h.01l7.407-.529h.019l8.641-.353,18.336-.881h.012l18.156-.529,16.039-.881,6.332-.352,4.921-.527,1.712-.171,1.149-.328.751-.3a.634.634,0,0,1,.133-.136l.1-1.118.176-9.143.176-31.209.176-32.272v-.007l.176-10.4V71.906l-15.811-1.19-35.084-1.939-18.867-.882L78,67.19l-6.343-.176-5.089-.175Z" transform="translate(-15.063 -13.126)"/>
      <path class="cls-4" d="M158.435,166.122a.63.63,0,0,1-.626-.56l-2.427-.324-4.191-.175H130.049l-17.276.353h-.006l-17.458.176H87.35l-6.7-.176-6-.176a.627.627,0,0,1-.063,0l-4.047-.528-1.754-.175a.631.631,0,0,1-.171-.042l-.882-.353a.631.631,0,0,1-.212-.139l-.353-.353a.63.63,0,0,1-.185-.446V146.277l-.353-15.512-.353-17.637V87.339l.353-7.406v-.006l.353-6.172v-.007l.353-5.114a.629.629,0,0,1,.009-.069l.353-1.94,0-.024.353-1.587a.629.629,0,0,1,.052-.145l.463-.926v-.026a.63.63,0,0,1,.348-.564l.027-.013.084-.125a.63.63,0,0,1,1.155.35v.176a.346.346,0,0,0-.009.248l.589.2,1,.166,4.2.525,5.436.351,6.858.176h7.4l17.459.176,17.635.176h.007l8.289.176h.015l7.759.353.024,0,6.349.529.021,0,3,.353a.636.636,0,0,1,.068.012l2.293.529.011,0,2.116.529a.626.626,0,0,1,.068.021l1.411.529.027.011,1.234.529a.63.63,0,0,1,.2.134l.353.353a.63.63,0,0,1,.118.164l.176.353a.63.63,0,0,1-.564.912H163.7l-.005,0-.264.659q-.01.024-.021.048l-.491.983-.334,1.669-.7,4.385-.7,5.786-.352,6.856-.353,7.756-.705,16.92-.352,17.1-.353,15.336v16l0,0a.63.63,0,0,1,0,1.127l-.353.176A.629.629,0,0,1,158.435,166.122Zm-71.06-1.79H95.3l17.452-.176,17.28-.353h21.2l4.232.176.057,0,2.284.3V148.724l.353-15.342.352-17.1v-.013l.705-16.929.353-7.762.353-6.881q0-.022,0-.044l.705-5.819,0-.024.705-4.409,0-.024.353-1.764a.629.629,0,0,1,.054-.158l.517-1.035.343-.857a.63.63,0,0,1,.1-.169l-.985-.422-1.364-.511-2.075-.519-2.254-.52-2.953-.347-6.326-.527-7.74-.352-8.276-.176-17.632-.176-17.455-.176h-7.42l-6.878-.176H81.33l-5.467-.353-.038,0L71.593,65.6l-.025,0-1.058-.176a.631.631,0,0,1-.1-.024l-.993-.331-.149.3-.333,1.5-.344,1.893-.35,5.075-.352,6.166-.352,7.389v25.725l.352,17.629.353,15.517v16.683l.077.077.679.272,1.675.168.019,0,4.025.525,5.964.175Z" transform="translate(-15.063 -13.126)"/>
      <path class="cls-4" d="M97.947,163.3h-8.3l-7.407-.176-.037,0-6.349-.529-.031,0-2.645-.353-.013,0-2.293-.353-.028,0-1.763-.353A.629.629,0,0,1,69,161.5l-1.587-.529a.632.632,0,0,1-.15-.073l-1.058-.705a.632.632,0,0,1-.1-.079l-.705-.706a.63.63,0,0,1,.532-1.07l.069-.069.273-.82v-1.308c0-.017,0-.034,0-.05l.351-4.384V146.1l-.352-14.8-.705-17.1-.705-16.929v-.012l-.176-7.936V82.411l.176-5.643,0-.033.353-4.232a.632.632,0,0,1,.017-.1l.353-1.411q.006-.023.014-.046l.353-1.058a.63.63,0,0,1,.316-.364l.705-.353a.63.63,0,0,1,.282-.067h.325l4.029-.35.023,0,10.581-.529,14.815-.705h.017l16.577-.353,8.818-.176h8.315l7.759.176h.016l7.23.353.025,0,6,.529.034,0,2.469.353h.007l2.292.353a.629.629,0,0,1,.07.015l1.94.529.055.018,1.411.529a.633.633,0,0,1,.1.05l.882.529a.63.63,0,0,1,.239.259l.036.071a.63.63,0,0,1,.282-.067h.176a.63.63,0,0,1,.445.184l.176.176a.63.63,0,0,1,.166.293l.17.682.345,1.035a.63.63,0,0,1,.03.142l.353,3.88V77.1l.353,5.29v.025L164,88.939v7.607l-.176,16.929v.006l-.353,17.459-.353,15.344-.176,11.1v4.4a.63.63,0,0,1-.912.564l-.291-.145-.582-.146-2.744-.172h-10.9l-32.085,1.058h-.008l-8.994.176-8.464.176Zm-8.281-1.261H97.94l8.459-.176,8.99-.176,32.092-1.058h10.994l2.822.176a.628.628,0,0,1,.114.018l.275.069v-3.523l.176-11.11.353-15.347.353-17.454.176-16.922V88.964l-.176-6.5-.351-5.27-.345-3.8-.33-.989q-.008-.023-.014-.047l-.048-.19-.049.033a.63.63,0,0,1-.913-.243l-.271-.541-.675-.405-1.33-.5L156.364,70l-2.254-.347-2.449-.35-5.967-.526-7.21-.352-7.745-.176h-8.274l-8.811.176-16.568.353-14.805.7-10.568.528-4.044.352-.055,0h-.2l-.339.169-.263.788-.334,1.338-.347,4.165-.176,5.617V89.3l.176,7.923.705,16.923.705,17.106v.011l.353,14.813v5.658q0,.025,0,.05l-.351,4.384v1.386a.63.63,0,0,1-.032.2l-.353,1.058a.63.63,0,0,1-.152.246l-.083.083.039.039.936.624,1.47.49,1.711.342,2.272.35,2.624.35,6.314.526Z" transform="translate(-15.063 -13.126)"/>
      <polygon class="cls-5" points="52.552 53.61 52.552 53.61 57.49 52.199 61.546 51.494 63.309 51.317 64.896 51.141 65.954 51.317 66.836 51.67 67.542 52.023 67.894 52.552 67.894 53.434 67.894 54.315 67.542 55.373 66.836 56.608 66.307 58.019 65.249 59.606 65.249 59.606 65.954 59.606 66.836 59.077 68.247 58.195 69.305 57.137 71.95 54.492 74.948 51.494 77.593 48.496 79.004 47.085 80.591 46.027 81.65 45.145 82.884 44.616 83.942 44.44 84.647 44.44 85 44.616 85 44.616 82.002 47.614 80.239 49.907 79.533 51.494 79.181 52.023 79.181 52.552 79.533 52.905 79.533 53.081 79.886 53.434 80.591 53.61 80.944 53.786 80.944 53.786 84.295 52.552 87.293 51.494 89.938 50.788 92.583 50.436 94.347 50.083 95.934 49.907 97.345 50.083 98.05 50.083 98.05 50.083 98.05 50.259 97.697 50.436 96.992 50.965 94.699 52.552 93.289 53.434 92.231 54.315 91.878 54.668 91.701 55.021 91.878 55.197 92.231 55.373 92.231 55.373 92.231 55.726 92.231 56.079 91.701 56.961 90.291 58.548 89.938 58.9 90.291 58.724 95.934 55.373 95.934 55.373 98.05 54.139 99.99 53.257 101.93 52.375 103.693 51.847 105.28 51.317 106.691 51.141 107.749 50.965 108.984 50.965 110.924 51.317 112.687 51.67 114.627 52.375 114.627 52.375 117.625 52.199 120.094 52.375 122.386 52.552 124.326 52.905 125.737 53.434 126.795 53.963 127.677 54.492 128.029 55.021 128.029 55.021 128.029 55.55 128.029 56.079 126.619 57.137 126.09 57.842 125.384 58.548 125.031 59.429 124.679 60.311 124.679 60.311 124.679 61.017 125.031 61.193 125.384 61.193 125.737 60.664 126.971 59.606 128.029 59.253 129.087 58.9 129.087 58.9 129.087 58.195 129.087 57.313 129.44 56.784 129.969 56.079 131.027 55.55 131.733 55.021 134.025 54.139 136.141 53.434 138.081 53.081 140.021 52.905 140.726 52.905 140.726 52.905 141.432 53.257 141.785 53.61 142.137 54.139 142.49 54.844 142.666 56.432 142.666 58.548 142.49 61.017 142.137 63.838 141.079 70.539 140.726 74.419 140.021 78.299 140.021 82.531 140.021 86.764 140.374 91.172 141.079 95.581 141.432 97.697 142.137 99.99 143.019 102.282 143.725 104.398 143.725 104.398 143.372 104.927 143.019 104.927 142.666 104.751 142.49 104.222 141.432 102.459 140.726 100.342 138.787 96.11 138.081 94.699 137.729 94.523 137.729 94.523 137.729 94.523 137.376 95.228 137.376 96.11 137.376 96.992 137.376 98.05 138.081 100.342 138.787 102.635 140.726 106.691 141.432 108.278 141.785 109.336 141.785 109.336 141.785 110.218 141.079 111.629 140.021 115.332 139.492 117.272 139.139 119.388 138.787 121.152 139.139 122.739 139.139 122.739 140.021 125.913 140.726 128.734 141.079 131.38 141.432 133.672 141.432 135.612 141.079 137.023 141.079 138.081 138.434 138.786 139.316 137.023 139.316 137.023 139.139 137.728 137.729 139.315 137.023 140.021 136.141 140.726 135.436 141.255 134.731 141.432 134.731 141.432 133.144 140.021 131.733 139.315 131.027 139.139 130.675 138.963 129.969 139.139 129.44 139.315 129.087 139.668 128.735 140.197 127.677 141.432 126.971 143.019 126.442 145.135 126.442 145.135 122.386 145.664 119.036 145.84 115.332 145.84 111.629 145.84 106.691 145.664 100.343 145.664 92.231 146.017 82.002 146.546 82.002 146.546 81.65 146.193 82.002 146.017 83.237 145.664 87.293 144.782 89.938 144.429 92.231 143.9 93.994 143.371 94.699 143.019 94.876 142.49 94.876 142.49 94.876 142.313 94.699 142.137 93.641 142.137 91.878 142.137 89.585 142.49 83.942 143.195 77.241 144.253 63.838 146.546 59.253 147.075 57.843 147.251 56.961 147.075 56.961 147.075 56.608 146.722 56.255 146.193 56.255 145.488 56.255 144.782 56.608 143.724 56.961 143.195 56.961 143.195 56.255 143.371 54.845 143.371 52.905 143.371 51.847 143.195 51.141 142.842 51.141 142.842 51.141 142.49 50.789 141.961 51.141 141.432 51.141 140.55 51.847 138.786 52.905 136.67 55.197 132.085 55.903 130.145 56.608 128.205 57.843 125.031 57.843 125.031 56.608 127.324 55.197 129.263 53.61 131.027 53.61 131.027 53.257 130.851 52.905 130.498 52.905 129.969 52.552 129.087 52.552 126.795 52.552 123.62 52.905 119.741 52.552 115.508 52.199 110.923 51.847 108.631 51.494 106.338 51.494 106.338 51.847 105.28 52.199 104.046 52.905 102.987 53.61 101.93 54.845 100.342 55.55 99.813 54.845 98.579 54.845 98.579 53.257 98.226 53.257 98.226 52.905 98.05 53.257 97.873 53.786 97.168 56.608 95.405 60.488 92.583 60.488 92.583 56.961 92.936 55.903 92.759 55.55 92.759 55.197 92.583 55.197 92.583 56.255 92.23 56.255 92.23 56.255 91.701 56.608 91.172 56.255 90.643 55.903 90.114 55.197 89.056 54.139 87.998 53.257 87.116 52.199 86.234 52.199 85.882 51.847 85.529 52.199 85.353 52.552 85 52.552 85 53.257 84.471 53.786 83.942 54.492 83.413 54.492 82.884 54.845 82.531 54.492 82.002 54.139 81.649 53.61 81.473 53.61 81.473 52.905 81.473 52.199 81.12 51.847 80.591 51.494 80.062 50.789 78.651 50.259 76.888 50.259 76.888 50.259 76.359 50.259 76.006 51.141 74.772 52.199 73.537 53.257 72.303 55.903 70.01 56.608 68.952 56.784 68.423 56.961 67.894 56.961 67.894 56.961 67.542 56.784 67.012 56.255 66.307 55.197 65.425 54.139 64.72 52.199 63.309 51.494 62.604 51.494 62.251 51.494 61.898 51.494 61.898 51.494 60.311 51.494 58.371 51.494 57.137 51.494 55.902 51.847 54.844 52.552 53.61 52.552 53.61 52.552 53.61"/>
      <polygon class="cls-5" points="148.133 35.975 148.133 35.975 151.484 35.799 155.187 35.799 159.949 35.799 165.416 36.328 168.237 36.68 171.235 37.209 174.057 37.915 177.054 38.797 179.876 39.855 182.698 41.089 182.698 41.089 183.756 40.56 184.461 39.855 184.99 39.326 185.166 38.797 185.343 38.268 184.99 37.739 184.638 37.386 183.932 36.857 182.874 36.504 181.816 36.151 178.642 35.446 174.762 34.741 169.824 34.388 169.824 34.388 165.945 34.388 162.241 34.741 155.187 35.27 148.133 35.975 148.133 35.975 148.133 35.975"/>
      <polygon class="cls-5" points="195.218 70.187 195.218 70.187 195.395 70.539 195.747 70.716 196.277 70.716 196.982 70.539 198.745 70.187 200.685 69.305 200.685 69.305 204.036 67.012 206.681 64.72 208.621 62.78 210.032 61.017 210.737 59.606 211.266 58.548 211.266 57.666 211.09 57.49 210.913 57.49 210.913 57.49 210.032 58.548 208.974 59.606 206.505 61.722 203.86 63.838 201.391 65.602 196.982 68.6 195.571 69.658 195.218 70.01 195.218 70.187 195.218 70.187 195.218 70.187"/>
      <polygon class="cls-6" points="127.324 77.593 127.324 77.593 129.087 80.768 130.322 83.942 131.38 87.292 131.733 90.643 132.085 94.17 132.085 97.521 131.733 100.695 131.027 104.046 129.793 107.22 128.735 110.394 126.971 113.216 125.031 116.037 122.739 118.682 120.27 121.152 117.625 123.268 114.627 125.207 114.627 125.207 111.629 126.795 108.278 128.205 104.928 129.087 101.401 129.616 98.05 129.969 94.699 129.793 91.349 129.44 88.351 128.734 85 127.676 82.002 126.442 79.004 124.679 76.183 122.915 73.538 120.622 71.245 118.154 68.952 115.508 67.189 112.51 67.189 112.51 65.249 109.336 64.191 105.985 63.133 102.635 62.604 99.284 62.251 95.934 62.604 92.583 62.957 89.232 63.486 86.058 64.544 82.884 65.954 79.71 67.542 76.712 69.305 74.066 71.598 71.421 74.243 68.952 76.888 66.836 79.886 64.896 79.886 64.896 82.884 63.133 86.235 61.898 89.585 61.017 92.936 60.488 96.286 60.135 99.637 60.311 102.988 60.664 106.338 61.369 109.336 62.427 112.687 63.662 115.332 65.249 118.33 67.189 120.976 69.305 123.444 71.774 125.384 74.595 127.324 77.593 127.324 77.593 127.324 77.593"/>
      <path class="cls-3" d="M130.043,77.846l-1.94-1.058.882.529h0l1.058.529Zm-3.7-1.94-.529-.176v-.176l.529.353Zm-3.7-1.411,2.116.705h0l-2.116-.705Zm2.822,1.234h0v-.176h.353l-1.058-.353h0l.705.529Zm0,0h0l.882.353h0l-.882-.353Zm-1.058.353h0l-.353-.176-.705-.353h0l-2.293-.529-2.292-.529h0l-1.411-.176-1.235-.353h-3.7l-.705.176h.705l2.645.176,2.645.176,2.293.529,2.469.529h0l1.94.529,1.94.882,2.116.882,1.94.882h0l1.94,1.411h0l-1.235-.882-1.411-.882h0l-.882-.705-1.411-.529-3-1.058Zm17.106,12.873h0l-.705-.882h0l-1.411-2.116-.882-1.058-.705-.882.353.705h0l.529.529-.176-.529h0l1.587,2.469,1.764,2.469h0v-.176l-.353-.529Zm.882,1.763-.529-1.058h0l.529,1.058ZM112.055,80.491h0v.176h0l-.705.353-.705.353H111V81.2h0l1.411-.529h0v-.176Zm.705,0-.353.176h0l.353-.176Zm10.934,7.759h0v0Zm-.353-.705-.353-.176.353.176ZM124.4,88.6Zm-4.056-4.056Zm3.351,1.94Zm1.411,2.469Zm-6-4.938v-.176h0v.176Zm3.88,3.35Zm1.763-.176-.353-.176h0l.353.176Zm3.88,4.232h.176l.882,1.058h0l-.529-.176h-.176l.705.705h0l.353.176v.176l.353.176h0l-.353-.176v-.176h0l.705.353h0l-.353-.353-.353-.176h0v.176h0l-.353-.529v-.353h0v0l.353.176h0l.353.529.353.705h.176v-.529l-.529-.176v-.176h0l.353.176h0v-.176h0v.176l.176.176v-.705l-.176-.176-.353-.176v-.176h-.353l-.353-.705v.176h0v-.176h0l-.882-.705-.176-.176v.176h0v.882M128.1,90.9l.529.529v-.882l-.176-.176v-.176h0v.176h0l.176.176v-.176l-.529-.529.353.176H128.1v.176l.353.176h0l-.353-.176V90.9h0m0-1.058h0m0,.176h0m-.529.882.176.176v-.529h0l.353.353v-.882h0v0h0v-.176l-.353-.353-.176-.176v.882h.176l-.176.176h0V90.9m-.176,0v.176h0V90.9h0v-.176m0-.176V88.956l.176.353v.882l-.176-.176h0v.353h.176V90.9l-.176-.176v-.176h0m.176-.176h0m-.176.176v-.353m0,.176v.176h0m-.705-.353h0v-.353l.353.176h0v0l-.353-.176v-.353h0v-.529h0V88.78h0l.353.176V88.78h0l.353.176v1.587h-.353l.353.176V90.9h0m0,0-.353-.705h0l-.353.176m0,0v-.176m0-.882v.176m.705.882-.353-.353h0l.353.353m-.705-.529v.353h0v-.353h0m0-1.058h0v.176h0V88.78h0m0,.705h0v-.353m-.529.705.176.353h0v-.353h.353v-.705l-.353-.353h0l.353.176h0l-.353-.176h.353V88.6l-.529-.176h0v.353h.176l-.176.176h0l.176.176h-.176v.705m-1.411-1.058V88.6l.353.353h0l.353.176v.353h.353v-.176h0v.176h0l.353.353v-.705l-.176-.176h.176l-.176-.176-.176-.353h0l.176.176.176.176v-.353h-.353v-.176l.176.176h.176l-.176-.176-.176-.353-.353-.176h0l.353.176v.176h0l-1.058-.705h0l.353.353V87.9h-.353v.882m-2.292-1.411h.882V87.9l.353.353h0l.353.353h.353v-.176h.353v.353h0V87.721l-.353-.353h.353v-.176h0l-.353-.176h0l-.353-.176-.353-.353h-.353l-.353-.176-.529-.353h.176l-.176.176v-.176h0v-.176h0v.882h.176v.176h0l-.176-.176.353.353h-.176l-.176-.176h0v.176h0v.176h0v.176h0m1.235-.705h0v0m-4.409-1.411h.176v.529h0l.529.353h0l.705.353.353.176h0v-.353h0v.176l.353-.176h0l-.353-.176v.176H120.7v-.176h0l-.353-.176-.353-.353h.353v-.176h0l.353.353.353.176.353.176.353.176h0v.529l.353.176-.705-.176h0l.353.176h0v0h0l.353.353v-.353h0v.176l.353.176v-.176h0v0l-.353-.353v-.353h0l.353.176v-.882h0l-.353-.176v-.176h-.353v-.176h0l-.353-.176V84.9h-.353v-.176h0l-.353-.353h-.353v.176h.353v.176h-.353v-.176l-.353.176h0l-.529-.353-.176-.176V84.9l.176.176h0l-.176-.176v.176h.176v.176h-.176m3.174,1.587v0h0M118.4,85.429h0l.353.176h0l.353.176h0l-.353-.353v-.176H118.4l.353-.176h0l.353.176h.176l-.176-.176h.176V84.9h-.176v-.176h0V84.9h.176v-.705l-.176-.176h0v-.176h0l-.353-.176v.176H118.4v.176h0v.705h.353V84.9h0l-.353-.176h0V84.9h0v.529h0m.705-1.411h0m-3,.176h.176l-.176-.176h0v-.529h0V82.96l.882.176h0l-.529-.176h.529l.353.176v.176l.353-.176h0l.353.529.353.176v0l-.353-.176h0v.176h0l.353.176v.529h0v.176h0V84.9h0v.176h0v.176h-.353l-.705-.176V84.9h0l.353.176h0V84.9h0v-.176h0l-.705-.353-.705-.176-.176-.176v.176h0m0-1.411h.882l-.882-.176v.176h0m0,1.411h0m-2.116-.705h0v-.176h.353l.353.176h.353v-.176h0l.705.529.353.176v-.176h0v-.353h0l-.353-.176-.353-.176h0l.353.176h0l.353-.176h0v.176h0V82.96l-.705-.353h0l.705.176v-.176l-.353-.176-.353-.176h-.353v.176h0l-.353-.176-.353-.176h0l-.353.176v.529h0l.353.176-.353-.176v.705h0m2.116.529v0h0m-2.822-.882.353.176h.353v-.529l-.353-.176.353.176v-.529h0l-.705-.529h0v.353h0l.353.176h-.353v.882m-.529.176h.353v-.176h.176v-.882l-.176-.176h.176v-.353h-.529v.353h0v.176h0v.176h0v.882h0m0-1.058v-.176h0v.176m-1.587.176h.176l.353.176h0l-.353.176h0v.176h0v-.176h0l.705.176H111.7l.705.176.353.176V82.255h0v-.176h0l-.353-.176h0l.353.176v-.353h-.353l-.705-.353-.529-.176V81.9h.176v0h0v.176h-.176v.353m-.176.353h0v-.353h0v.353h0m0-.529.176.176v-.353L111,81.9h0v-.529h0V81.2h.176V81.9H111v.353h0m0,.176h0m0-.176h0m0,.176h0m8.465,3.351Zm.529.353h0v0Zm9.346,6.7h0l.353.176-.529-.176h.176Zm-.529-1.058h-.353l.353-.176v.176Zm.882-.529Zm-1.94,0v.176h0v-.176Zm-.705-.529h0l-.353-.353.353.353Zm-1.058-.882h0l-.176-.176.176.176Zm-11.286-6h0l.353-.176h0l.353.176h-.353v-.176l-.353.176Z" transform="translate(-15.063 -13.126)"/>
      <polygon class="cls-3" points="99.637 60.135 99.637 60.135 95.934 60.135 92.231 60.488 88.704 61.193 85.353 62.251 85.353 62.251 84.295 62.604 83.237 62.956 83.237 62.956 81.297 63.838 80.944 64.191 80.944 64.191 80.944 64.191 80.591 64.367 80.944 64.367 80.944 64.367 81.65 64.015 81.65 64.015 80.944 64.367 80.944 64.367 79.886 64.72 79.886 64.72 78.299 65.778 78.299 65.778 79.886 64.72 80.944 64.191 80.944 64.015 80.944 64.015 79.004 65.073 77.241 66.307 77.241 66.307 76.183 67.012 76.183 67.012 74.948 68.07 73.89 68.776 73.538 69.305 73.538 69.305 73.185 69.481 73.185 69.481 71.95 70.716 70.892 71.95 69.305 73.89 69.305 73.89 68.952 74.419 68.952 74.419 68.247 75.654 68.247 75.654 69.305 74.243 69.305 74.243 70.187 73.185 70.54 72.656 70.892 72.127 70.892 72.127 70.54 72.656 70.187 73.185 69.305 74.243 69.305 74.243 68.247 75.654 68.247 75.654 66.307 78.651 66.307 78.651 67.189 76.888 68.247 75.654 68.247 75.654 68.952 74.419 68.952 74.419 69.305 73.89 70.892 71.95 70.892 71.95 68.6 74.772 66.836 77.593 66.836 77.593 65.249 80.239 64.191 82.884 63.309 85.529 62.604 88.174 62.251 90.996 61.898 93.817 61.898 96.639 62.251 99.46 62.604 102.106 63.309 104.927 64.191 107.573 65.249 110.218 66.836 112.863 68.247 115.332 70.187 117.625 71.95 119.917 71.95 119.917 74.243 122.033 76.888 124.149 79.533 125.913 82.355 127.324 85.353 128.558 88.351 129.616 91.349 130.322 94.347 130.674 94.347 130.674 97.345 130.851 100.695 130.674 103.693 130.322 106.338 129.616 109.336 128.734 111.982 127.676 114.627 126.442 117.272 124.855 119.741 123.091 122.033 121.152 123.973 119.035 126.09 116.743 128.029 114.098 129.44 111.452 130.675 108.807 132.085 105.809 132.085 105.809 132.438 104.575 132.791 103.164 133.32 100.166 133.673 96.992 133.673 93.465 133.32 90.114 132.791 86.764 132.085 83.942 131.733 82.531 131.027 81.473 131.027 81.473 129.793 79.181 128.735 77.946 128.382 77.241 128.029 77.241 128.029 77.241 128.029 77.593 128.029 78.122 128.029 78.828 128.029 78.828 128.735 80.591 129.087 82.355 130.322 86.058 130.675 88.174 131.027 90.643 131.38 93.641 131.027 96.992 131.027 96.992 131.38 95.405 131.38 95.052 131.38 95.052 131.38 96.11 131.38 97.873 131.027 100.166 130.675 102.987 129.793 105.633 129.087 106.867 128.382 107.925 128.382 107.925 126.795 111.1 124.679 114.274 122.033 117.448 120.446 118.859 119.036 120.27 117.096 121.68 115.685 122.915 113.745 124.149 111.982 125.207 109.689 126.089 107.749 126.795 105.633 127.5 103.693 127.853 103.693 127.853 101.401 128.205 99.285 128.382 96.992 128.382 94.699 128.382 94.699 128.382 91.349 127.853 88.351 127.147 85.353 126.089 82.355 124.855 79.886 123.268 77.241 121.504 74.596 119.564 72.656 117.272 70.54 114.803 68.6 112.334 67.189 109.512 65.954 106.514 64.896 103.517 64.191 100.342 63.838 96.992 63.838 93.641 63.838 93.641 64.191 90.114 64.896 86.764 65.602 83.765 66.484 80.768 66.484 80.768 67.542 78.828 68.952 76.888 70.187 75.124 71.245 73.714 71.245 73.714 73.185 71.597 74.948 69.658 76.888 68.07 78.652 66.66 78.652 66.66 76.536 68.07 74.948 69.658 73.185 71.421 71.245 73.361 71.245 73.361 70.892 74.066 71.245 73.185 72.303 71.774 73.538 70.539 73.538 70.539 74.596 69.658 75.654 68.952 75.654 68.952 77.593 67.365 79.533 65.954 79.533 65.954 79.886 65.602 80.239 65.602 80.239 65.602 83.237 63.838 84.295 63.309 85.353 62.78 85.353 62.78 86.94 62.427 88.527 62.075 88.527 62.075 90.643 61.546 91.701 61.193 91.701 61.193 91.349 61.193 90.996 61.017 90.996 61.017 93.289 60.84 93.289 60.84 90.996 61.017 90.996 61.017 91.349 61.193 91.701 61.193 91.701 61.193 93.994 60.84 96.639 60.664 99.285 60.488 101.93 60.664 101.93 60.664 101.93 60.664 98.932 60.488 95.934 60.311 95.934 60.311 96.639 60.311 95.581 60.488 94.699 60.311 94.699 60.311 96.286 60.135 97.345 60.135 99.99 60.488 99.99 60.488 101.224 60.488 101.224 60.488 101.577 60.664 101.93 60.664 102.988 60.84 102.988 60.84 99.637 60.135 99.637 60.135 99.637 60.135"/>
      <polygon class="cls-3" points="125.737 99.637 125.737 99.637 123.444 101.048 123.444 101.048 123.092 101.224 122.739 101.4 122.386 101.577 122.386 101.577 122.386 101.577 122.386 101.577 122.386 101.753 122.386 101.753 122.739 101.753 122.386 101.753 122.386 101.753 122.033 102.106 122.033 102.106 122.386 101.753 122.386 101.577 122.386 101.577 121.681 102.106 121.681 102.282 121.681 102.282 121.328 102.459 120.976 102.635 120.976 102.635 120.976 102.635 120.976 102.635 120.094 102.987 120.094 103.517 120.094 103.517 119.741 103.517 119.741 103.517 119.741 103.693 120.094 103.693 120.094 103.693 120.094 103.693 120.094 103.517 120.27 103.34 120.446 103.34 120.446 103.34 120.27 103.34 120.094 103.517 120.094 103.693 120.094 103.693 119.741 103.693 119.741 103.693 119.388 104.046 119.036 104.046 119.036 104.046 119.388 103.869 119.741 103.693 119.741 103.693 119.741 103.517 119.741 103.517 120.094 103.517 120.094 102.987 120.094 102.987 119.036 103.869 119.036 103.869 117.096 105.28 115.685 106.867 112.334 110.218 112.334 110.218 110.747 112.158 108.984 114.274 108.984 114.274 107.573 116.214 106.691 118.506 104.399 122.915 104.399 122.915 104.046 123.973 103.693 125.384 102.988 127.853 102.988 127.853 102.988 128.382 103.34 128.734 103.693 128.911 103.693 128.911 104.399 128.911 104.399 128.734 104.399 128.734 104.928 128.205 105.28 127.5 105.633 126.442 106.338 125.207 106.338 125.207 105.986 125.56 105.986 125.56 105.986 125.031 106.338 123.973 106.691 123.444 107.044 123.091 107.044 123.091 107.397 122.562 107.749 121.857 108.631 120.27 109.336 118.682 110.042 117.095 110.042 117.095 110.924 115.508 110.924 115.508 114.098 111.276 115.685 109.336 117.625 107.396 117.625 107.396 119.388 105.457 119.388 105.457 120.094 104.751 120.976 104.398 120.976 104.398 121.681 103.693 122.386 102.987 122.386 102.987 120.976 104.222 120.976 104.222 120.976 104.398 120.976 104.046 121.328 103.517 121.328 103.517 121.681 103.34 122.033 103.34 122.033 103.34 122.739 102.635 122.739 102.635 122.739 102.635 122.739 102.635 122.739 102.635 123.444 102.106 123.621 101.753 124.326 101.4 124.679 101.224 124.679 101.048 124.679 100.871 125.031 100.695 124.679 100.871 124.679 101.048 124.679 101.048 126.442 99.637 126.442 99.637 126.442 99.637 125.737 99.99 125.384 100.166 125.384 100.166 125.384 100.166 125.384 100.166 125.031 100.166 125.031 100.166 125.384 99.813 126.09 99.637 126.09 99.637 126.09 99.46 126.09 99.46 126.442 99.46 126.442 99.637 126.442 99.46 126.442 99.46 125.737 99.637 125.737 99.637 125.737 99.637"/>
      <polygon class="cls-3" points="90.291 72.656 90.291 72.656 87.293 75.124 87.293 75.124 87.293 75.477 86.94 75.654 86.587 76.006 86.587 76.183 86.587 76.183 86.587 76.183 86.587 76.183 86.587 76.183 86.94 76.183 86.94 76.183 86.587 76.183 86.235 76.359 85.882 76.712 85.882 76.712 86.235 76.359 86.587 76.183 86.587 76.006 85.529 76.888 85.353 77.064 85.353 77.064 85.353 77.417 85 77.593 84.647 77.77 85 77.77 84.647 77.77 83.942 78.475 83.942 79.004 83.942 79.004 83.59 79.181 83.59 79.181 83.59 79.533 83.942 79.357 83.942 79.357 83.942 79.181 83.942 79.004 84.295 78.828 84.295 78.828 84.295 78.828 84.295 78.828 83.942 79.004 83.942 79.181 83.942 79.357 83.59 79.533 83.59 79.533 83.237 79.886 82.531 80.239 82.531 80.239 82.884 79.71 83.59 79.533 83.59 79.533 83.59 79.181 83.59 79.181 83.942 79.004 83.942 78.475 82.884 79.886 82.884 79.886 80.944 82.178 79.004 84.471 77.241 86.94 75.654 89.409 75.654 89.409 73.89 92.407 72.303 95.228 72.303 95.228 70.892 98.226 69.834 101.224 68.952 104.222 68.247 107.573 68.247 107.573 68.247 109.16 68.247 110.923 68.247 112.687 68.6 114.274 68.6 114.274 68.952 114.803 69.305 115.156 69.482 115.332 69.658 115.332 70.187 115.156 70.54 114.803 70.54 114.803 70.54 113.745 70.54 112.863 70.54 111.452 70.892 109.865 70.892 109.865 70.54 110.218 70.54 110.394 70.54 109.689 70.54 108.278 70.54 107.573 70.892 106.867 70.892 106.867 71.245 105.985 71.598 104.927 71.95 102.811 72.656 100.695 72.832 99.46 73.538 98.403 73.538 98.403 74.243 96.286 74.243 96.286 77.593 90.29 79.533 87.292 81.65 84.295 81.65 84.295 82.355 82.884 83.59 81.297 83.59 81.297 84.295 80.415 85 79.71 85 79.71 86.587 77.417 86.587 77.417 85 79.533 85 79.533 85 79.71 85 79.533 85.353 78.651 85.353 78.651 85.529 78.475 85.882 78.122 85.882 78.122 86.587 77.064 86.587 77.064 86.94 77.064 86.94 77.064 86.94 77.064 87.645 76.359 87.998 75.654 88.527 75.124 88.88 74.772 89.233 74.595 89.233 74.595 88.88 74.419 88.88 74.419 89.233 74.066 89.233 74.066 88.88 74.419 88.88 74.419 89.233 74.595 89.233 74.595 90.996 72.479 90.996 72.479 90.996 72.479 90.291 73.008 89.585 73.361 89.585 73.361 89.938 73.361 89.585 73.537 89.585 73.537 89.585 73.537 89.938 73.008 90.643 72.656 90.643 72.656 90.643 72.303 90.643 72.303 90.996 72.303 90.996 72.479 90.996 72.127 90.996 72.127 90.291 72.656 90.291 72.656 90.291 72.656"/>
      <g>
        <path class="cls-3" d="M94.949,77.846h0l.705-.353h0l-1.587.882L92.3,79.433h0l1.058-.705,1.587-.882Zm13.4,4.938-.353.353.353-.176h0v-.176Zm-.705.705h0Zm-.882.705.529-.353h0l-.529.353Zm.529-.529h0v-.176h0v.176Zm0,0Zm.705.882h-.353l-.882,1.058h0l-.353.176-.353.176h0l-.705.705v.353l.353-.176h0l1.94-1.94h0l1.411-1.587.705-.529-1.058.529h0v.176l-.353.353-.353.705Zm-6.7,4.938.353-.176-.705.705h0v-.176l.353-.353ZM131.453,94.6l.353.353h0l-.353-.176V94.6Zm0,0Zm-31.39-13.05h0Zm4.232.353h0Zm26.629,11.815h.176v.705l.353.176v-.176h0v-.529h0l.353.353.353.705h0l-.353-.353h0l.353.529.176.353.176.176v-.529h0V94.6l-.176-.176h0l.176.176v-.176l-.353-.705L131.1,92.659h0v-.176h-.176v.705h.176v.176l.353-.176h0v.353h0v.176h0l-.353-.529h-.176v.529M109.762,82.431l.176-.176h0l.705.353.353.176V81.9h0v-.529l-.353-.176h0l.353.176V81.2l-.353-.176-.882-.176v.176h0V81.9h0v.529h0m0-.353h.176l-.176.176h0v-.176h0m0-.176h0M108.7,80.844h-.353L108,80.668h-.882V81.9h0v.176h.529l.353.176h0v-.176h0l.353.176v.176h.353l-.353-.176h0l.353.176h0l.353-.176.353.176h.353V81.9h0V81.02l-.353-.176h0v.176l-.705-.353h0v.176h0m1.058,1.234h-.353V81.9h.353m-2.645-1.234h-.353v0l-.705-.176.353.176h0l-.705-.176h-.176v.176h0v1.058h.176l.353-.176h.353V81.9h.353l.353.176V81.9l-.353-.176h.176l.176.176V80.668h0m-1.058.176h0m-.529-.353L105,80.315v.176h0v0h-.353V81.9H105v-.176l-.353-.176H105v.176h.353V81.9h0v-.176h.176V80.668h-.176v-.176h0v.176h.176v-.176m-.882,0H104.3v.882h0v.176h0V81.9h.353v-.176h0V80.491m-.353,0h-.705v.882h.176l-.176.176h0v.176h0l.176.176h.529v-.529h0v-.882m-.705,0h-.529v.176h-.353v-.176h0v.176h.353l-.353.176h-.176v.705h.176v.176h-.176V81.9h.529l.353-.176h0v-.176h.176V80.491h0m0,.882h0m-1.058-.529-.176-.176h0v.176h-.176v.882h0v.353h.176V81.9h.176v-.176h-.176v-.176h.176v-.705m-.353,0H102v-.176h0V81.2h0v.176h0v.705h.176v-.353H102v-.176l.176.176v-.882M102,80.668v-.176h0l-.353.353h-.705l-.353.176h0V81.2h.353l-.353.176h-.176l-.353-.176h0l.353.176h-.353v.176h0v.176h0V81.9H99.71v.176h0l1.235.353h0l-.353-.176h.353v-.176h.353v.176h.353V81.9h0v.176H102V81.2h0v-.529m3.351,1.234h0Zm.353,0h0Z" transform="translate(-15.063 -13.126)"/>
        <polygon class="cls-3" points="67.542 88.527 67.542 89.232 67.542 88.88 67.542 88.88 67.542 88.527 67.542 88.527 67.542 88.527"/>
        <rect class="cls-7" x="67.542" y="89.938" height="0.176"/>
        <polygon class="cls-3" points="67.894 91.172 67.894 90.467 67.894 90.467 67.894 91.172 67.894 91.172 67.894 91.172"/>
        <polygon class="cls-3" points="67.894 90.114 67.894 90.114 67.894 90.29 67.542 90.114 67.542 90.114 67.894 90.467 67.894 90.114 67.894 90.114"/>
        <polygon class="cls-3" points="67.894 90.114 67.894 90.114 67.894 89.938 67.894 90.114 67.894 90.114"/>
        <polygon class="cls-3" points="68.6 90.29 68.6 90.29 68.6 90.467 68.6 90.643 68.6 90.643 68.952 92.23 68.952 92.23 68.952 92.583 68.952 92.936 68.952 92.936 69.305 93.994 69.482 94.17 69.482 93.994 69.482 93.994 69.305 92.407 68.952 90.996 68.952 90.996 68.6 89.585 68.247 88.351 68.247 87.645 68.247 87.645 68.247 88.527 68.247 88.527 68.6 89.409 68.6 90.29 68.6 90.29 68.6 90.29"/>
        <polygon class="cls-3" points="67.894 83.589 67.894 83.589 67.894 83.942 67.894 83.942 67.894 84.647 67.894 85.529 67.894 85.353 67.894 85.353 67.894 85 67.894 85.176 67.894 85.176 68.247 84.295 68.247 83.413 68.247 83.413 68.247 83.413 67.894 83.589 67.894 83.589 67.894 83.589"/>
        <polygon class="cls-3" points="68.247 83.06 68.247 83.413 68.247 83.413 68.247 83.06 68.247 83.06 68.247 83.06"/>
      </g>
      <polygon class="cls-3" points="68.6 93.465 68.6 93.465 68.952 95.757 69.658 97.873 69.658 97.873 69.834 98.226 70.187 98.579 70.187 99.108 70.54 99.284 70.54 99.284 70.54 99.284 70.54 99.284 70.54 99.284 70.54 99.108 70.54 99.108 70.54 99.284 70.54 99.637 70.892 100.166 70.892 100.166 70.54 99.637 70.54 99.284 70.187 99.284 70.187 99.284 70.892 100.519 70.892 100.871 70.892 100.871 71.245 101.224 71.245 101.577 71.598 101.93 71.598 101.753 71.598 101.93 71.95 102.811 72.656 103.34 72.656 103.34 72.656 103.693 72.656 103.693 72.832 104.046 72.656 103.34 72.656 103.34 72.656 103.164 72.656 103.164 72.303 102.987 72.303 102.635 72.303 102.635 72.303 102.987 72.656 103.164 72.656 103.164 72.656 103.34 72.832 104.046 72.832 104.046 73.185 104.398 73.538 104.927 73.538 104.927 73.185 104.575 72.832 104.046 72.832 104.046 72.656 103.693 72.656 103.693 72.656 103.34 71.95 102.811 71.95 102.811 73.185 104.751 73.185 104.751 75.301 107.573 77.593 110.218 80.239 112.687 82.884 114.979 82.884 114.979 86.235 117.095 89.585 119.035 89.585 119.035 91.349 119.917 93.289 120.446 96.639 121.504 100.343 122.209 104.046 122.739 104.046 122.739 105.986 122.915 107.926 122.739 110.042 122.209 111.982 121.857 111.982 121.857 112.687 121.328 113.04 120.975 113.04 120.622 113.04 120.446 112.687 120.093 112.334 119.917 112.334 119.917 111.276 119.917 110.042 120.093 108.631 120.27 106.691 120.27 106.691 120.27 107.044 120.27 107.397 120.446 106.338 120.622 104.928 120.622 104.046 120.622 103.34 120.27 103.34 120.27 101.048 119.741 98.579 119.388 95.934 118.859 94.347 118.506 93.289 117.977 93.289 117.977 90.643 116.919 90.643 116.919 87.293 114.979 83.942 112.863 82.179 111.805 80.591 110.394 79.004 109.16 77.593 107.573 77.593 107.573 74.948 104.751 74.948 104.751 74.243 103.517 73.538 102.459 73.538 102.459 71.598 99.637 71.598 99.637 73.538 102.282 73.538 102.282 73.538 102.635 73.185 102.459 72.303 101.577 72.303 101.577 72.303 101.224 72.303 100.871 72.303 100.871 71.245 99.46 71.245 99.46 71.245 99.284 71.245 99.108 71.245 99.108 70.892 98.403 70.54 98.05 70.54 97.697 70.54 97.697 70.187 96.639 70.187 96.11 69.658 95.757 69.658 95.757 69.482 95.934 69.482 95.934 69.482 95.405 69.482 95.405 69.482 95.934 69.482 95.934 69.658 95.757 69.658 95.757 69.305 94.346 68.6 92.759 68.6 92.759 68.6 92.759 68.952 94.699 68.952 94.699 68.952 94.523 68.952 94.699 68.952 94.876 68.952 94.876 68.6 94.17 68.6 93.288 68.6 93.288 68.6 92.936 68.6 92.936 68.6 92.936 68.6 92.759 68.6 92.407 68.6 92.407 68.6 93.465 68.6 93.465 68.6 93.465"/>
      <polygon class="cls-8" points="138.434 113.039 138.434 113.039 141.079 111.1 143.725 109.16 148.309 104.928 152.542 100.871 156.069 96.992 161.888 90.29 164.004 87.998 165.592 86.587 165.592 86.587 168.061 84.647 169.824 83.06 171.588 80.944 172.469 80.062 172.646 79.886 172.998 79.886 172.998 79.886 173.175 80.062 173.351 80.062 173.175 80.591 172.469 81.826 170.882 83.589 170.882 83.589 168.943 86.764 167.532 89.232 167.179 90.29 167.003 90.996 167.003 90.996 167.179 91.172 167.355 91.172 167.884 90.996 168.766 90.29 169.648 89.232 171.411 87.293 172.117 86.411 172.117 86.411 172.293 88.174 172.293 88.174 172.469 88.527 172.822 88.527 173.175 88.351 173.528 87.998 174.586 86.764 174.586 86.764 174.409 87.116 173.88 87.469 173.88 87.821 173.88 88.174 174.056 88.351 174.586 88.527 174.586 88.527 175.115 88.351 175.643 87.998 177.231 86.764 178.994 85.176 180.934 83.06 184.285 79.357 185.695 77.593 185.343 79.71 186.401 79.181 188.693 77.77 184.814 83.06 182.345 85.882 182.345 85.882 184.638 83.237 185.519 82.531 186.225 82.002 186.577 81.826 186.577 82.002 186.754 82.178 186.577 82.531 186.577 82.531 184.461 85.176 181.816 87.821 178.818 90.643 175.643 93.465 172.293 96.11 168.943 98.932 162.065 104.046 150.426 112.334 147.075 114.803 146.193 115.508 146.017 115.861 146.017 115.861 146.017 115.861 146.546 116.214 147.428 116.214 149.897 115.861 152.895 114.979 152.895 114.979 145.664 118.859 140.021 121.68 137.729 122.738 136.318 123.268 136.318 123.268 134.731 123.797 134.378 123.797 134.378 123.797 134.378 123.62 134.378 123.62 132.438 125.031 130.322 126.442 127.677 128.029 127.677 128.029 126.09 128.734 123.444 129.44 117.625 130.851 111.629 131.732 109.336 132.085 107.573 132.085 107.573 132.085 106.338 132.261 104.575 132.614 100.695 133.672 97.697 135.083 96.286 135.612 98.05 134.025 98.05 134.025 101.93 132.438 106.338 130.498 111.629 128.029 117.978 125.031 124.679 121.504 131.733 117.448 135.083 115.332 138.434 113.039 138.434 113.039 138.434 113.039"/>
      <polygon class="cls-9" points="0 144.077 0 144.077 2.998 142.49 5.996 140.726 8.817 138.61 11.463 136.317 13.755 134.025 16.048 131.556 18.164 129.087 19.751 126.618 23.102 122.21 25.218 118.506 27.158 114.979 27.158 114.979 25.747 120.446 24.512 125.56 23.454 130.674 23.454 130.674 23.454 131.556 23.454 131.909 23.454 131.732 23.807 131.027 27.51 124.15 30.861 118.682 32.801 115.685 34.741 112.51 37.21 109.16 39.855 105.633 42.853 102.106 45.851 98.579 45.851 98.579 46.203 97.697 46.203 97.168 46.203 97.168 45.498 97.344 44.793 98.05 44.087 98.579 44.087 98.579 43.558 98.755 43.205 98.932 43.205 98.932 42.853 98.755 43.205 98.226 44.087 97.344 45.851 95.757 45.851 95.757 50.259 92.23 53.61 89.232 55.902 86.764 57.49 84.824 58.548 83.237 59.253 82.002 59.606 81.297 59.959 80.768 59.959 80.768 65.602 76.888 64.191 76.182 73.537 69.658 73.537 69.658 76.536 68.423 83.237 65.249 86.588 63.309 89.938 61.546 92.231 59.959 93.288 59.253 93.641 58.724 93.641 58.724 93.994 57.842 93.994 57.313 93.641 57.137 93.288 57.313 92.583 57.666 91.878 58.019 95.934 53.081 92.231 53.61 92.231 53.61 109.689 46.732 122.739 42.147 127.677 40.384 129.44 40.031 130.322 39.678 130.322 39.678 132.438 38.973 133.144 38.62 133.673 38.268 133.673 37.915 133.673 37.738 133.673 37.562 133.144 37.386 132.438 37.033 131.38 36.857 130.322 36.68 130.322 36.68 130.675 36.328 131.38 35.975 132.085 35.799 132.791 35.622 135.083 35.27 137.729 35.093 140.726 34.917 143.372 34.564 144.782 34.212 145.841 33.682 146.899 33.153 147.781 32.625 147.781 32.625 147.781 32.272 147.251 31.919 146.193 31.566 145.135 31.214 143.372 31.037 141.432 30.861 139.139 30.861 136.318 30.861 133.32 31.037 130.322 31.566 126.619 32.095 123.092 32.977 119.035 34.035 114.98 35.446 110.747 37.21 106.338 39.325 106.338 39.325 101.93 41.618 97.345 44.263 94.876 45.498 92.583 47.085 90.643 48.672 88.527 50.259 88.527 50.259 85.529 52.728 81.297 56.079 70.187 64.544 64.544 69.129 59.253 73.361 54.845 77.417 53.257 79.004 51.847 80.591 51.847 80.591 49.554 83.413 47.261 86.058 42.147 91.172 39.855 93.817 37.562 96.11 35.446 98.403 34.212 100.695 34.212 100.695 32.448 103.164 30.508 105.985 26.452 111.805 21.162 118.506 21.162 118.506 11.463 130.674 4.056 139.315 0 144.077 0 144.077 0 144.077"/>
      <polygon class="cls-3" points="32.448 143.548 32.448 143.548 40.913 143.548 44.44 143.371 48.496 143.019 53.257 142.313 59.606 141.079 79.004 137.199 79.004 137.199 76.536 136.847 75.301 136.67 74.948 136.494 75.301 136.317 75.301 136.317 78.652 136.494 82.179 136.67 88.88 136.494 94.876 135.965 100.343 135.259 104.575 134.554 107.926 133.849 110.747 133.143 91.349 139.139 91.701 137.728 91.701 137.728 90.291 138.434 87.998 139.139 83.942 140.197 78.299 141.255 70.54 142.666 60.488 144.077 47.791 145.664 47.791 145.664 45.498 146.546 45.145 146.722 45.145 146.546 45.145 146.017 45.498 145.84 46.909 144.253 46.909 144.253 34.741 143.724 29.45 143.548 32.448 143.548 32.448 143.548 32.448 143.548"/>
      <path class="cls-3" d="M134.275,97.95l.529,1.058h0V97.95h0v.529h0v-.353h0l.353.353v.176h0v1.058h0l.176-.176h0l.176.353v.353l-.176-.353h0l.353.705h0v.529h.353l-.353-.176v-.353h0l.353.176v.353h0v-1.058l-.353-.353v.176h0l-.353-.529-.176-.529h.176l-1.058-1.587h.176l-.176.176v.529Zm-1.763-2.292.176.705h0l.353-.176h-.353v-.353h0l.353.353v.176h.353v.176h0v-.176h0l.353.529.353.705.176.353v-.529H134.1v-.176h.176l-.176-.529v-.353l-.353.176h0v-.353h0V96.01h0v.176h0v-.353h-.353v.176l.353.176h-.353l-.353-.705v-.529h0l-.529-.529V94.6h.176v.176h0l-.176-.176v.529h0v.529Zm-1.587-1.94h.176v.705l.353.176v-.176h0v-.529h0l.353.353.353.705h0l-.353-.353h0l.353.529.176.353.176.176v-.529h0V94.6l-.176-.176h0l.176.176v-.176l-.353-.705L131.1,92.659h0v-.176h-.176v.705h.176v.176l.353-.176h0v.353h0v.176h0l-.353-.529h-.176v.529Zm-2.292-2.292h.176l.882,1.058h0l-.529-.176h-.176l.705.705h0l.353.176v.176l.353.176h0l-.353-.176v-.176h0l.705.353h0l-.353-.353-.353-.176h0v.176h0l-.353-.529v-.353h0v0l.353.176h0l.353.529.353.705h.176v-.529l-.529-.176v-.176h0l.353.176h0v-.176h0v.176l.176.176v-.705l-.176-.176-.353-.176v-.176h-.353l-.353-.705v.176h0v-.176h0l-.882-.705-.176-.176v.176h0v.882ZM128.1,90.9l.529.529v-.882l-.176-.176V90.19h0v.176h0l.176.176v-.176l-.529-.529.353.176H128.1v.176l.353.176h0l-.353-.176V90.9Zm0-1.058Zm0,.176Zm-.529.882.176.176v-.529h0l.353.353v-.882h0v0h0v-.176l-.353-.353-.176-.176v.882h.176l-.176.176h0V90.9Zm-.176,0v.176h0V90.9h0v0Zm0-.353V88.956l.176.353v.882l-.176-.176h0v.353h.176V90.9l-.176-.176v-.176Zm.176-.176h0Zm-.176.176v0Zm0-.176v.176h0Zm-.705-.176h0v-.353l.353.176h0v0l-.353-.176v-.353h0v-.529h0V88.78h0l.353.176V88.78h0l.353.176v1.587h-.353l.353.176V90.9h0Zm.705.705-.353-.705h0l-.353.176Zm-.705-.529v0Zm0-1.058v0Zm.705,1.058-.353-.353h0l.353.353Zm-.705-.529v.353h0v-.353Zm0-1.058h0v.176h0V88.78Zm0,.705h0v0Zm-.529.353.176.353h0v-.353h.353v-.705l-.353-.353h0l.353.176h0l-.353-.176h.353V88.6l-.529-.176h0v.353h.176l-.176.176h0l.176.176h-.176v.705Zm-1.411-1.058V88.6l.353.353h0l.353.176v.353h.353v-.176h0v.176h0l.353.353v-.705l-.176-.176h.176l-.176-.176-.176-.353h0l.176.176.176.176v-.353h-.353v-.176l.176.176h.176l-.176-.176-.176-.353-.353-.176h0l.353.176v.176h0l-1.058-.705h0l.353.353V87.9h-.353v.882Zm-2.292-1.411h.882V87.9l.353.353h0l.353.353h.353v-.176h.353v.353h0V87.721l-.353-.353h.353v-.176h0l-.353-.176h0l-.353-.176-.353-.353h-.353l-.353-.176-.529-.353h.176l-.176.176v-.176h0v-.176h0v.882h.176v.176h0l-.176-.176.353.353h-.176l-.176-.176h0v.176h0v.176h0v.176Zm1.235-.705h0v0Zm-4.409-1.411h.176v.529h0l.529.353h0l.705.353.353.176h0v-.353h0v.176l.353-.176h0l-.353-.176v.176H120.7v-.176h0l-.353-.176-.353-.353h.353v-.176h0l.353.353.353.176.353.176.353.176h0v.529l.353.176-.705-.176h0l.353.176h0v0h0l.353.353v-.353h0v.176l.353.176v-.176h0v0l-.353-.353v-.353h0l.353.176v-.882h0l-.353-.176v-.176h-.353v-.176h0l-.353-.176V84.9h-.353v-.176h0l-.353-.353h-.353v.176h.353v.176h-.353v-.176l-.353.176h0l-.529-.353-.176-.176V84.9l.176.176h0l-.176-.176v.176h.176v.176Zm3.174,1.587v0ZM118.4,85.429h0l.353.176h0l.353.176h0l-.353-.353v-.176H118.4l.353-.176h0l.353.176h.176l-.176-.176h.176V84.9h-.176v-.176h0V84.9h.176v-.705l-.176-.176h0v-.176h0l-.353-.176v.176H118.4v.176h0v.705h.353V84.9h0l-.353-.176h0V84.9h0v.529Zm.705-1.411Zm-3,.176h.176l-.176-.176h0v-.529h0V82.96l.882.176h0l-.529-.176h.529l.353.176v.176l.353-.176h0l.353.529.353.176v0l-.353-.176h0v.176h0l.353.176v.529h0v.176h0V84.9h0v.176h0v.176h-.353l-.705-.176V84.9h0l.353.176h0V84.9h0v-.176h0l-.705-.353-.705-.176-.176-.176v.176Zm0-1.411h.882l-.882-.176v.176Zm0,1.411Zm-2.116-.705h0v-.176h.353l.353.176h.353v-.176h0l.705.529.353.176v-.176h0v-.353h0l-.353-.176-.353-.176h0l.353.176h0l.353-.176h0v.176h0V82.96l-.705-.353h0l.705.176v-.176l-.353-.176-.353-.176h-.353v.176h0l-.353-.176-.353-.176h0l-.353.176v.529h0l.353.176-.353-.176v.705Zm2.116.529v0Zm-2.822-.882.353.176h.353v-.529l-.353-.176.353.176v-.529h0l-.705-.529h0v.353h0l.353.176h-.353v.882Zm-.529.176h.353v-.176h.176v-.882l-.176-.176h.176v-.353h-.529v.353h0v.176h0v.176h0v.882Zm0-1.058v-.176h0v.176Zm-1.587.176h.176l.353.176h0l-.353.176h0v.176h0v-.176h0l.705.176H111.7l.705.176.353.176V82.255h0v-.176h0l-.353-.176h0l.353.176v-.353h-.353l-.705-.353-.529-.176V81.9h.176v0h0v.176h-.176v.353Zm-.176.353h0v-.353h0v.353Zm0-.529.176.176v-.353L111,81.9h0v-.529h0V81.2h.176V81.9H111v.353Zm0,.176Zm-1.235,0,.176-.176h0l.705.353.353.176V81.9h0v-.529l-.353-.176h0l.353.176V81.2l-.353-.176-.882-.176v.176h0V81.9h0v.529ZM111,82.255Zm0,.176h0Zm-1.235-.353h.176l-.176.176h0v-.176Zm0-.176ZM108.7,80.844h-.353L108,80.668h-.882V81.9h0v.176h.529l.353.176h0v-.176h0l.353.176v.176h.353l-.353-.176h0l.353.176h0l.353-.176.353.176h.353V81.9h0V81.02l-.353-.176h0v.176l-.705-.353h0v.176Zm1.058,1.234h-.353V81.9h.353Zm-2.645-1.411h-.353v0l-.705-.176.353.176h0l-.705-.176h-.176v.176h0v1.058h.176l.353-.176h.353V81.9h.353l.353.176V81.9l-.353-.176h.176l.176.176V80.668Zm-1.058.176Zm-.529-.353L105,80.315v.176h0v0h-.353V81.9H105v-.176l-.353-.176H105v.176h.353V81.9h0v-.176h.176V80.668h-.176v-.176h0v.176h.176v-.176Zm-.882,0H104.3v.882h0v.176h0V81.9h.353v-.176h0V80.491Zm-.353,0h-.705v.882h.176l-.176.176h0v.176h0l.176.176h.529v-.529h0v-.882Zm-.705,0h-.529v.176h-.353v-.176h0v.176h.353l-.353.176h-.176v.705h.176v.176h-.176V81.9h.529l.353-.176h0v-.176h.176V80.491Zm0,.882Zm-1.058-.529-.176-.176h0v.176h-.176v.882h0v.353h.176V81.9h.176v-.176h-.176v-.176h.176v-.705Zm-.353,0H102v-.176h0V81.2h0v.176h0v.705h.176v-.353H102v-.176l.176.176v-.882ZM102,80.668v-.176h0l-.353.353h-.705l-.353.176h0V81.2h.353l-.353.176h-.176l-.353-.176h0l.353.176h-.353v.176h0v.176h0V81.9H99.71v.176h0l1.235.353h0l-.353-.176h.353v-.176h.353v.176h.353V81.9h0v.176H102V81.2h0v-.529Z" transform="translate(-15.063 -13.126)"/>
      <g>
        <polygon class="cls-3" points="114.098 103.517 114.098 103.164 114.451 104.398 114.451 104.398 114.451 103.869 114.098 103.517 114.098 103.517 114.098 103.517"/>
        <polygon class="cls-3" points="131.733 96.639 131.733 96.639 131.38 96.815 131.38 96.815 131.027 96.815 130.675 97.168 130.675 97.168 130.675 97.168 130.675 96.992 130.675 96.992 130.675 96.992 131.38 96.992 131.733 96.639 131.733 96.639 131.733 96.639 131.733 96.639 131.733 96.639 131.733 96.639"/>
        <polygon class="cls-3" points="132.085 96.639 131.733 96.639 131.733 96.639 132.085 96.639 132.085 96.639 132.085 96.639"/>
        <polygon class="cls-3" points="120.976 88.527 120.976 88.703 120.976 88.703 120.976 88.527 120.976 88.527 120.976 88.527"/>
        <polygon class="cls-3" points="121.328 89.761 121.328 89.761 120.976 88.703 120.976 88.703 121.328 89.232 121.328 89.585 121.328 89.761 121.328 89.761 121.328 89.761"/>
        <polygon class="cls-3" points="121.328 88.527 121.328 88.88 121.328 88.88 121.328 88.703 121.328 88.527 121.328 88.527 121.328 88.527"/>
        <polygon class="cls-3" points="121.328 88.703 121.328 88.703 121.328 88.351 121.328 88.703 121.328 88.703"/>
        <polygon class="cls-3" points="120.446 87.645 120.446 87.645 120.623 87.469 120.446 87.645 120.446 87.645"/>
        <polygon class="cls-10" points="119.212 84.824 119.741 85.882 119.741 85.882 119.741 85.882 119.741 85.882 119.741 85.353 119.741 84.824 119.741 84.824 119.741 85.176 119.741 85.353 119.741 85.353 119.741 85.176 119.741 85 119.741 85 120.094 85.353 120.094 85.529 120.094 85.529 120.094 85.529 120.094 85.882 120.094 86.058 120.094 86.234 120.094 86.587 120.094 86.587 120.094 86.587 120.27 86.411 120.27 86.411 120.446 86.764 120.446 86.94 120.446 87.116 120.27 86.764 120.27 86.764 120.623 87.469 120.623 87.469 120.623 87.469 120.623 87.822 120.623 87.998 120.976 87.998 120.976 87.998 120.623 87.822 120.623 87.469 120.623 87.469 120.976 87.645 120.976 87.998 120.976 87.998 120.976 87.292 120.976 86.94 120.623 86.587 120.623 86.764 120.623 86.764 120.27 86.234 120.094 85.705 120.094 85.705 120.27 85.705 120.27 85.705 119.212 84.118 119.212 84.118 119.388 84.118 119.212 84.295 119.212 84.824 119.212 84.824"/>
        <polygon class="cls-10" points="117.448 82.531 117.625 83.237 117.625 83.237 117.978 83.06 117.625 83.06 117.625 82.884 117.625 82.708 117.625 82.708 117.978 83.06 117.978 83.237 117.978 83.237 118.33 83.237 118.33 83.413 118.33 83.413 118.33 83.237 118.33 83.237 118.683 83.765 119.036 84.471 119.212 84.824 119.212 84.295 119.036 84.295 119.036 84.118 119.212 84.118 119.212 84.118 119.036 83.589 119.036 83.237 118.683 83.413 118.683 83.413 118.683 83.237 118.683 83.06 118.683 83.06 118.683 82.884 118.683 82.884 118.683 83.06 118.683 83.06 118.683 82.884 118.683 82.708 118.33 82.708 118.33 82.708 118.33 82.708 118.33 82.884 118.683 83.06 118.33 83.06 118.33 83.06 117.978 82.355 117.978 82.002 117.978 81.826 117.978 81.826 117.448 81.297 117.448 81.473 117.625 81.473 117.625 81.473 117.625 81.473 117.625 81.649 117.625 81.649 117.448 81.473 117.448 82.002 117.625 82.002 117.448 82.002 117.448 82.531 117.448 82.531"/>
        <polygon class="cls-3" points="120.27 87.645 120.27 87.645 120.27 87.645 120.27 87.645 120.27 87.469 120.27 87.469 120.27 87.469 120.27 87.645 120.27 87.645 120.27 87.645"/>
        <polygon class="cls-3" points="120.27 86.764 120.27 86.94 120.27 86.94 120.27 86.764 120.27 86.764 120.27 86.764"/>
        <polygon class="cls-3" points="120.446 87.469 120.27 86.94 120.27 86.94 120.446 87.469 120.446 87.469 120.446 87.469"/>
        <polygon class="cls-3" points="119.036 84.824 119.036 84.824 119.388 85 119.388 85.176 119.388 85.176 119.036 85 119.036 85 119.036 85.353 119.036 85.353 119.036 85 119.036 84.824 119.036 84.824 119.036 84.824"/>
        <polygon class="cls-3" points="118.683 84.118 119.036 84.295 118.683 84.118 118.683 84.118"/>
        <polygon class="cls-3" points="118.683 83.942 118.683 83.942 118.683 83.765 118.683 83.589 118.683 83.589 118.683 83.765 118.683 84.118 118.683 84.118 118.683 83.942 118.683 83.942 118.683 83.942 118.683 83.942"/>
      </g>
    </g>
  </g>
</svg>
